<?xml version="1.0" encoding="UTF-8"?>
<svg width="58px" height="58px" viewBox="0 0 58 58" version="1.1" xmlns="http://www.w3.org/2000/svg" xmlns:xlink="http://www.w3.org/1999/xlink">
    <title>成功</title>
    <g id="页面-1" stroke="none" stroke-width="1" fill="none" fill-rule="evenodd">
        <g id="用户注册备份-2" transform="translate(-1355.000000, -264.000000)" fill="#52C41A" fill-rule="nonzero">
            <g id="编组-2备份" transform="translate(1209.000000, 182.000000)">
                <g id="成功" transform="translate(146.000000, 82.000000)">
                    <path d="M29,0 C45.0166875,0 58,12.9833125 58,29 C58,45.0166875 45.0166875,58 29,58 C12.9833125,58 0,45.0166875 0,29 C0,12.9833125 12.9833125,0 29,0 Z M23.9047062,37.4099708 L17.7480133,31.2532778 L17.7480134,31.253278 C16.6353455,30.1012493 14.7994498,30.069338 13.6474144,31.182004 C12.4953857,32.2946719 12.4634744,34.1305676 13.5761404,35.282603 C13.5994837,35.3067721 13.6232453,35.3305337 13.6474144,35.353877 L21.851508,43.5579706 L21.8515082,43.5579709 C22.9839551,44.6900779 24.8196537,44.6900779 25.9521073,43.5579703 L46.4550686,23.0520864 L46.4550686,23.0520864 C47.6233757,21.9565194 47.6823454,20.1212898 46.586777,18.9529826 C45.49121,17.7846755 43.6559804,17.7257059 42.4876732,18.8212743 C42.4428711,18.863287 42.3994145,18.9067123 42.3573704,18.9514846 L23.9017622,37.4041702 L23.9047062,37.4099708 Z" id="形状"></path>
                </g>
            </g>
        </g>
    </g>
</svg>